# xmcd
#
# Track frame offsets:
#	150
#	16763
#	34955
#	54720
#	76868
#	94018
#	111548
#	126920
#	144890
#	161785
#
# Disc length: 2625 seconds
#
# Revision: 1
# Processed by: cddbd v1.5.2PL0 Copyright (c) Steve Scherf et al.
# Submitted via: MusicWizard 7.2.0
#
DISCID=800a3f0a
DTITLE=Franklin, Pete - Guitar Pete´s Blues
DYEAR=1993
DGENRE=Blues
TTITLE0=I Got To Find My Baby
TTITLE1=Lonesome Bedroom Blues
TTITLE2=Prison Bound
TTITLE3=Black Gal
TTITLE4=Grievin´ Me
TTITLE5=Rocky Mountains
TTITLE6=Six White Horses
TTITLE7=Sail On
TTITLE8=My Old Lonesome Blues
TTITLE9=Guitar Pete´s Blues
EXTD=Recorded in Indanapolis, IN - July 12, 1961
EXTT0=
EXTT1=
EXTT2=
EXTT3=
EXTT4=
EXTT5=
EXTT6=
EXTT7=
EXTT8=
EXTT9=
PLAYORDER=
